<svg xmlns="http://www.w3.org/2000/svg" width="233" height="210" viewBox="0 0 233 210" version="1.1"><path d="M 166.500 39.554 C 155.500 41.965, 146.387 43.952, 146.250 43.969 C 144.820 44.147, 146.932 47.493, 151.009 51.509 C 153.765 54.223, 155.902 56.778, 155.759 57.186 C 155.617 57.595, 147.657 65.833, 138.072 75.492 L 120.644 93.055 107.072 79.608 C 92.864 65.531, 90.161 63.862, 85.020 65.992 C 82.130 67.189, 34 115.945, 34 117.676 C 34 118.872, 45.306 130, 46.520 130 C 47.050 130, 56.816 120.675, 68.223 109.278 L 88.963 88.555 102.811 102.278 C 115.223 114.576, 117.018 116, 120.108 116 C 122.004 116, 124.668 115.233, 126.027 114.295 C 127.387 113.357, 137.807 103.120, 149.182 91.545 L 169.865 70.500 174.717 75.250 C 179.463 79.897, 181.353 80.857, 182.404 79.155 C 183.317 77.678, 192 39.887, 192 37.392 C 192 34.146, 190.657 34.260, 166.500 39.554 M 23.250 165.716 C 24.763 165.945, 27.238 165.945, 28.750 165.716 C 30.263 165.487, 29.025 165.300, 26 165.300 C 22.975 165.300, 21.738 165.487, 23.250 165.716 M 128.821 165.749 C 144.398 165.905, 169.598 165.904, 184.821 165.749 C 200.044 165.594, 187.300 165.467, 156.500 165.467 C 125.700 165.467, 113.244 165.594, 128.821 165.749" stroke="none" fill="#ea9825" fill-rule="evenodd"/><path d="M 0.032 104.974 L 0.036 209.961 116.768 209.730 L 233.500 209.500 233.754 113.108 C 233.955 36.996, 233.745 16.390, 232.754 15.166 C 231.757 13.933, 231.756 13.770, 232.750 14.367 C 233.706 14.941, 234 13.343, 234 7.574 L 234 0.029 117.014 0.008 L 0.029 -0.013 0.032 104.974 M 0 8.500 C 0 12.808, 0.300 16.033, 0.667 15.667 C 1.369 14.965, 1.148 1.815, 0.422 1.089 C 0.190 0.857, 0 4.192, 0 8.500 M 0.471 80 C 0.471 114.925, 0.596 129.212, 0.749 111.750 C 0.903 94.287, 0.903 65.712, 0.749 48.250 C 0.596 30.787, 0.471 45.075, 0.471 80 M 113.073 18.704 C 31.649 18.983, 23.482 19.158, 21.823 20.660 C 20.098 22.222, 20 25.520, 20 82.155 C 20 140.667, 20.045 142.045, 22 144 C 23.752 145.752, 25.333 146, 34.757 146 C 45.873 146, 51.770 147.035, 53.164 149.232 C 53.607 149.929, 53.976 156.714, 53.985 164.309 L 54 178.117 65.250 168.271 C 71.438 162.855, 79.774 155.629, 83.776 152.212 L 91.051 146 150.526 146 C 208.667 146, 210.045 145.955, 212 144 C 213.955 142.045, 214 140.667, 214 82.155 C 214 24.385, 213.933 22.250, 212.078 20.570 C 211.020 19.613, 208.433 18.733, 206.328 18.613 C 204.222 18.494, 162.258 18.534, 113.073 18.704 M 0 179 C 0 196.233, 0.213 210.121, 0.472 209.861 C 1.146 209.188, 1.228 148.895, 0.556 148.223 C 0.250 147.917, 0 161.767, 0 179 M 23.250 165.716 C 24.763 165.945, 27.238 165.945, 28.750 165.716 C 30.263 165.487, 29.025 165.300, 26 165.300 C 22.975 165.300, 21.738 165.487, 23.250 165.716 M 100.654 165.750 C 100.399 166.162, 125.348 166.500, 156.095 166.500 C 186.843 166.500, 212 166.162, 212 165.750 C 212 165.338, 187.052 165, 156.559 165 C 126.066 165, 100.909 165.338, 100.654 165.750 M 94.872 168.750 C 93.629 170.336, 93.664 170.371, 95.250 169.128 C 96.213 168.373, 97 167.585, 97 167.378 C 97 166.555, 96.179 167.084, 94.872 168.750 M 88.872 173.750 C 87.629 175.336, 87.664 175.371, 89.250 174.128 C 90.213 173.373, 91 172.585, 91 172.378 C 91 171.555, 90.179 172.084, 88.872 173.750 M 68.872 190.750 C 67.603 192.369, 67.650 192.390, 69.500 191.033 C 70.600 190.226, 71.688 189.439, 71.917 189.283 C 72.146 189.127, 71.863 189, 71.289 189 C 70.715 189, 69.627 189.787, 68.872 190.750 M 61.872 196.750 C 60.629 198.336, 60.664 198.371, 62.250 197.128 C 63.916 195.821, 64.445 195, 63.622 195 C 63.415 195, 62.627 195.787, 61.872 196.750" stroke="none" fill="#133048" fill-rule="evenodd"/></svg>